<svg id="visual" viewBox="0 0 900 600" width="900" height="600" xmlns="http://www.w3.org/2000/svg" xmlns:xlink="http://www.w3.org/1999/xlink" version="1.1"><path d="M0 84L16.7 89.5C33.3 95 66.7 106 100 115.2C133.3 124.3 166.7 131.7 200 129.5C233.3 127.3 266.7 115.7 300 108.7C333.3 101.7 366.7 99.3 400 107C433.3 114.7 466.7 132.3 500 137.5C533.3 142.7 566.7 135.3 600 129.8C633.3 124.3 666.7 120.7 700 125.2C733.3 129.7 766.7 142.3 800 142.2C833.3 142 866.7 129 883.3 122.5L900 116L900 0L883.3 0C866.7 0 833.3 0 800 0C766.7 0 733.3 0 700 0C666.7 0 633.3 0 600 0C566.7 0 533.3 0 500 0C466.7 0 433.3 0 400 0C366.7 0 333.3 0 300 0C266.7 0 233.3 0 200 0C166.7 0 133.3 0 100 0C66.7 0 33.3 0 16.7 0L0 0Z" fill="#af85e0" stroke-linecap="round" stroke-linejoin="miter"></path></svg>